<?xml version="1.0" encoding="UTF-8" standalone="no"?>
<!-- Created with Inkscape (http://www.inkscape.org/) -->

<svg
   xmlns:dc="http://purl.org/dc/elements/1.1/"
   xmlns:cc="http://creativecommons.org/ns#"
   xmlns:rdf="http://www.w3.org/1999/02/22-rdf-syntax-ns#"
   xmlns:svg="http://www.w3.org/2000/svg"
   xmlns="http://www.w3.org/2000/svg"
   version="1.1"
   width="481.26172"
   height="473.37259"
   id="svg2"
   xml:space="preserve"><metadata
     id="metadata8"><rdf:RDF><cc:Work
         rdf:about=""><dc:format>image/svg+xml</dc:format><dc:type
           rdf:resource="http://purl.org/dc/dcmitype/StillImage" /><dc:title></dc:title></cc:Work></rdf:RDF></metadata><defs
     id="defs6"><clipPath
       id="clipPath16"><path
         d="m 0,595.276 841.89,0 L 841.89,0 0,0 0,595.276 z"
         id="path18" /></clipPath><clipPath
       id="clipPath26"><path
         d="m 0,595.276 841.89,0 L 841.89,0 0,0 0,595.276 z"
         id="path28" /></clipPath><clipPath
       id="clipPath38"><path
         d="m 0,595.276 841.89,0 L 841.89,0 0,0 0,595.276 z"
         id="path40" /></clipPath><clipPath
       id="clipPath102"><path
         d="m 0,595.276 841.89,0 L 841.89,0 0,0 0,595.276 z"
         id="path104" /></clipPath><clipPath
       id="clipPath114"><path
         d="m 0,595.276 841.89,0 L 841.89,0 0,0 0,595.276 z"
         id="path116" /></clipPath><clipPath
       id="clipPath126"><path
         d="m 0,595.276 841.89,0 L 841.89,0 0,0 0,595.276 z"
         id="path128" /></clipPath></defs><g
     transform="matrix(1.25,0,0,-1.25,-241.31044,738.14137)"
     id="g10"><g
       id="g12"><g
         clip-path="url(#clipPath16)"
         id="g14"><path
           d="m 535.334,383.52 c 0,-69.404 -56.263,-125.667 -125.667,-125.667 -69.405,0 -125.667,56.263 -125.667,125.667 0,69.404 56.262,125.667 125.667,125.667 69.404,0 125.667,-56.263 125.667,-125.667"
           id="path20"
           style="fill:#f8ee6b;fill-opacity:1;fill-rule:nonzero;stroke:none" /></g></g><g
       id="g22"><g
         clip-path="url(#clipPath26)"
         id="g24"><path
           d="m 408.25,504.52 c -67.241,0 -121.75,-54.51 -121.75,-121.75 0,-67.242 54.509,-121.75 121.75,-121.75 67.241,0 121.75,54.508 121.75,121.75 0,67.24 -54.509,121.75 -121.75,121.75 M 577,382.02 c 0,-93.336 -75.664,-169 -169,-169 -93.336,0 -169,75.664 -169,169 0,93.335 75.664,169 169,169 93.336,0 169,-75.665 169,-169"
           id="path30"
           style="fill:#ffcc05;fill-opacity:1;fill-rule:nonzero;stroke:none" /><path
           d="m 408.25,504.52 c -67.241,0 -121.75,-54.51 -121.75,-121.75 0,-67.242 54.509,-121.75 121.75,-121.75 67.241,0 121.75,54.508 121.75,121.75 0,67.24 -54.509,121.75 -121.75,121.75 z M 577,382.02 c 0,-93.336 -75.664,-169 -169,-169 -93.336,0 -169,75.664 -169,169 0,93.335 75.664,169 169,169 93.336,0 169,-75.665 169,-169 z"
           id="path32"
           style="fill:none;stroke:#000100;stroke-width:2;stroke-linecap:butt;stroke-linejoin:miter;stroke-miterlimit:4;stroke-opacity:1;stroke-dasharray:none" /></g></g><g
       id="g34"><g
         clip-path="url(#clipPath38)"
         id="g36"><text
           transform="matrix(0.01621145,0.99986859,0.99986859,-0.01621145,228.1309,365.9424)"
           id="text42"><tspan
             x="0"
             y="0"
             id="tspan44"
             style="font-size:55.65201187px;font-variant:normal;font-weight:normal;font-stretch:normal;writing-mode:lr-tb;fill:#231f20;fill-opacity:1;fill-rule:nonzero;stroke:none;font-family:Calibri;-inkscape-font-specification:Calibri">R</tspan></text>
<text
           transform="matrix(0.13371672,0.9910196,0.9910196,-0.13371672,228.1489,391.208)"
           id="text46"><tspan
             x="0"
             y="0"
             id="tspan48"
             style="font-size:55.65197754px;font-variant:normal;font-weight:normal;font-stretch:normal;writing-mode:lr-tb;fill:#231f20;fill-opacity:1;fill-rule:nonzero;stroke:none;font-family:Calibri;-inkscape-font-specification:Calibri">e</tspan></text>
<text
           transform="matrix(0.24389214,0.96980236,0.96980236,-0.24389214,231.144,414.105)"
           id="text50"><tspan
             x="0"
             y="0"
             id="tspan52"
             style="font-size:55.65206146px;font-variant:normal;font-weight:normal;font-stretch:normal;writing-mode:lr-tb;fill:#231f20;fill-opacity:1;fill-rule:nonzero;stroke:none;font-family:Calibri;-inkscape-font-specification:Calibri">s</tspan></text>
<text
           transform="matrix(0.35320931,0.93554432,0.93554432,-0.35320931,235.0229,431.2187)"
           id="text54"><tspan
             x="0"
             y="0"
             id="tspan56"
             style="font-size:55.65198517px;font-variant:normal;font-weight:normal;font-stretch:normal;writing-mode:lr-tb;fill:#231f20;fill-opacity:1;fill-rule:nonzero;stroke:none;font-family:Calibri;-inkscape-font-specification:Calibri">e</tspan></text>
<text
           transform="matrix(0.466152,0.88470465,0.88470465,-0.466152,242.7983,452.5884)"
           id="text58"><tspan
             x="0"
             y="0"
             id="tspan60"
             style="font-size:55.6520195px;font-variant:normal;font-weight:normal;font-stretch:normal;writing-mode:lr-tb;fill:#231f20;fill-opacity:1;fill-rule:nonzero;stroke:none;font-family:Calibri;-inkscape-font-specification:Calibri">a</tspan></text>
<text
           transform="matrix(0.55372494,0.83269964,0.83269964,-0.55372494,252.9893,472.0454)"
           id="text62"><tspan
             x="0"
             y="0"
             id="tspan64"
             style="font-size:55.65200043px;font-variant:normal;font-weight:normal;font-stretch:normal;writing-mode:lr-tb;fill:#231f20;fill-opacity:1;fill-rule:nonzero;stroke:none;font-family:Calibri;-inkscape-font-specification:Calibri">r</tspan></text>
<text
           transform="matrix(0.63015491,0.77646943,0.77646943,-0.63015491,261.0957,484.7817)"
           id="text66"><tspan
             x="0"
             y="0"
             id="tspan68"
             style="font-size:55.65203094px;font-variant:normal;font-weight:normal;font-stretch:normal;writing-mode:lr-tb;fill:#231f20;fill-opacity:1;fill-rule:nonzero;stroke:none;font-family:Calibri;-inkscape-font-specification:Calibri">c</tspan></text>
<text
           transform="matrix(0.72054483,0.69340836,0.69340836,-0.72054483,273.0054,500.1348)"
           id="text70"><tspan
             x="0"
             y="0"
             id="tspan72"
             style="font-size:55.65205383px;font-variant:normal;font-weight:normal;font-stretch:normal;writing-mode:lr-tb;fill:#231f20;fill-opacity:1;fill-rule:nonzero;stroke:none;font-family:Calibri;-inkscape-font-specification:Calibri">h</tspan></text>
<text
           transform="matrix(0.84103208,0.54098525,0.54098525,-0.84103208,298.5937,524.0142)"
           id="text74"><tspan
             x="0"
             y="0"
             id="tspan76"
             style="font-size:55.65197754px;font-variant:normal;font-weight:normal;font-stretch:normal;writing-mode:lr-tb;fill:#231f20;fill-opacity:1;fill-rule:nonzero;stroke:none;font-family:Calibri;-inkscape-font-specification:Calibri">C</tspan></text>
<text
           transform="matrix(0.90714403,0.42082028,0.42082028,-0.90714403,320.0835,538.084)"
           id="text78"><tspan
             x="0"
             y="0"
             id="tspan80"
             style="font-size:55.65202332px;font-variant:normal;font-weight:normal;font-stretch:normal;writing-mode:lr-tb;fill:#231f20;fill-opacity:1;fill-rule:nonzero;stroke:none;font-family:Calibri;-inkscape-font-specification:Calibri">e</tspan></text>
<text
           transform="matrix(0.95493585,0.29681228,0.29681228,-0.95493585,340.8335,548.1089)"
           id="text82"><tspan
             x="0"
             y="0"
             id="tspan84"
             style="font-size:55.65201187px;font-variant:normal;font-weight:normal;font-stretch:normal;writing-mode:lr-tb;fill:#231f20;fill-opacity:1;fill-rule:nonzero;stroke:none;font-family:Calibri;-inkscape-font-specification:Calibri">n</tspan></text>
<text
           transform="matrix(0.98120067,0.1929903,0.1929903,-0.98120067,364.1943,555.3408)"
           id="text86"><tspan
             x="0"
             y="0"
             id="tspan88"
             style="font-size:55.6520195px;font-variant:normal;font-weight:normal;font-stretch:normal;writing-mode:lr-tb;fill:#231f20;fill-opacity:1;fill-rule:nonzero;stroke:none;font-family:Calibri;-inkscape-font-specification:Calibri">t</tspan></text>
<text
           transform="matrix(0.99341591,0.11456368,0.11456368,-0.99341591,377.7822,558.2202)"
           id="text90"><tspan
             x="0"
             y="0"
             id="tspan92"
             style="font-size:55.6520195px;font-variant:normal;font-weight:normal;font-stretch:normal;writing-mode:lr-tb;fill:#231f20;fill-opacity:1;fill-rule:nonzero;stroke:none;font-family:Calibri;-inkscape-font-specification:Calibri">r</tspan></text>
<text
           transform="matrix(0.99986859,0.01621145,0.01621145,-0.99986859,392.6265,560.292)"
           id="text94"><tspan
             x="0"
             y="0"
             id="tspan96"
             style="font-size:55.65201187px;font-variant:normal;font-weight:normal;font-stretch:normal;writing-mode:lr-tb;fill:#231f20;fill-opacity:1;fill-rule:nonzero;stroke:none;font-family:Calibri;-inkscape-font-specification:Calibri">e</tspan></text>
</g></g><g
       id="g98"><g
         clip-path="url(#clipPath102)"
         id="g100"><path
           d="m 529.982,383.151 -75.457,0 0,112.224 c 43.884,-18.193 74.899,-61.958 75.457,-112.224 M 408,551.02 c -0.459,0 0.082,-0.002 -0.377,-0.006 L 407,550.52 407,213.275 c 6.5,-0.255 12.456,-0.343 18.5,0.495 21.083,2.922 29.025,5.788 29.025,5.788 l 0,116.093 115.933,0 c 0,0 5.542,8.374 6.542,46.369 2.486,94.481 -75.664,169 -169,169"
           id="path106"
           style="fill:#f7971d;fill-opacity:1;fill-rule:nonzero;stroke:none" /><path
           d="m 529.982,383.151 -75.457,0 0,112.224 c 43.884,-18.193 74.899,-61.958 75.457,-112.224 z M 408,551.02 c -0.459,0 0.082,-0.002 -0.377,-0.006 L 407,550.52 407,213.275 c 6.5,-0.255 12.456,-0.343 18.5,0.495 21.083,2.922 29.025,5.788 29.025,5.788 l 0,116.093 115.933,0 c 0,0 5.542,8.374 6.542,46.369 2.486,94.481 -75.664,169 -169,169 z"
           id="path108"
           style="fill:none;stroke:#000100;stroke-width:2;stroke-linecap:butt;stroke-linejoin:miter;stroke-miterlimit:4;stroke-opacity:1;stroke-dasharray:none" /></g></g><g
       id="g110"><g
         clip-path="url(#clipPath114)"
         id="g112"><path
           d="m 488.942,530.918 c 8.197,5.502 20.243,9.729 33.697,9.729 25.119,0 38.697,-14.597 38.697,-34.625 0,-18.5 -13.238,-33.266 -29.362,-47.523 l -10.184,-8.487 0,-0.339 41.753,0 0,-21.216 -78.245,0 0,15.615 14.088,12.729 c 24.27,21.725 35.982,34.116 36.151,47.015 0,8.996 -5.261,16.124 -17.99,16.124 -3.069,0 -6.015,-0.496 -8.79,-1.31 l -19.815,12.288 z"
           id="path118"
           style="fill:#ec2024;fill-opacity:1;fill-rule:nonzero;stroke:none" /><path
           d="m 488.942,530.918 c 8.197,5.502 20.243,9.729 33.697,9.729 25.119,0 38.697,-14.597 38.697,-34.625 0,-18.5 -13.238,-33.266 -29.362,-47.523 l -10.184,-8.487 0,-0.339 41.753,0 0,-21.216 -78.245,0 0,15.615 14.088,12.729 c 24.27,21.725 35.982,34.116 36.151,47.015 0,8.996 -5.261,16.124 -17.99,16.124 -3.069,0 -6.015,-0.496 -8.79,-1.31 l -19.815,12.288 z"
           id="path120"
           style="fill:none;stroke:#000100;stroke-width:2;stroke-linecap:butt;stroke-linejoin:miter;stroke-miterlimit:4;stroke-opacity:1;stroke-dasharray:none" /></g></g><g
       id="g122"><g
         clip-path="url(#clipPath126)"
         id="g124"><path
           d="m 512.667,250.275 c 41.677,32.903 -3.667,67 -3.667,67 l -186.5,138 c 0,0 -9,5 1,15 36.555,36.556 83.5,33 83.5,33 l 0,47.5 c -82.5,0 -130,-62.166 -130,-62.166 -24.989,-39.528 7.822,-65.504 14.022,-70.131 0.624,-0.465 0.978,-0.703 0.978,-0.703 l 174.5,-130 c 0,0 8.055,-6.925 -1.5,-12.167 -48,-26.333 -97.333,-7.667 -97.333,-7.667 l -19.334,-43.333 c 0,0 82,-39.333 164.334,25.667"
           id="path130"
           style="fill:#ec2024;fill-opacity:1;fill-rule:nonzero;stroke:none" /><path
           d="m 512.667,250.275 c 41.677,32.903 -3.667,67 -3.667,67 l -186.5,138 c 0,0 -9,5 1,15 36.555,36.556 83.5,33 83.5,33 l 0,47.5 c -82.5,0 -130,-62.166 -130,-62.166 -24.989,-39.528 7.822,-65.504 14.022,-70.131 0.624,-0.465 0.978,-0.703 0.978,-0.703 l 174.5,-130 c 0,0 8.055,-6.925 -1.5,-12.167 -48,-26.333 -97.333,-7.667 -97.333,-7.667 l -19.334,-43.333 c 0,0 82,-39.333 164.334,25.667 z"
           id="path132"
           style="fill:none;stroke:#000100;stroke-width:2;stroke-linecap:butt;stroke-linejoin:miter;stroke-miterlimit:4;stroke-opacity:1;stroke-dasharray:none" /></g></g></g></svg>